<?xml version="1.0" encoding="utf-8"?>
<!-- Generator: Adobe Illustrator 24.2.0, SVG Export Plug-In . SVG Version: 6.00 Build 0)  -->
<svg version="1.1" id="Layer_1" xmlns="http://www.w3.org/2000/svg" xmlns:xlink="http://www.w3.org/1999/xlink" x="0px" y="0px"
	 viewBox="0 0 183 156.6" style="enable-background:new 0 0 183 156.6;" xml:space="preserve">
<style type="text/css">
	.st0{fill:#FFFFFF;}
	.st1{font-family:'Lora-Regular';}
	.st2{font-size:5.2182px;}
</style>
<path class="st0" d="M83.6,88.6c0.3-0.3,0.5-0.6,0.7-0.9c0.5-0.7,0.9-1.6,1.1-2.4l0.1-0.4L85,84.6c-3.6-1.7-5.8-4.5-5.8-7.7
	c0-5,5.5-9,12.2-9s12.2,4,12.2,9s-5.5,9-12.2,9c-0.8,0-1.6-0.1-2.4-0.2l-0.3,0l-0.2,0.2C87.3,87.3,85.5,88.2,83.6,88.6z"/>
<path d="M91.5,68.5c3.2,0,6.2,0.9,8.4,2.6c2.1,1.6,3.3,3.7,3.3,5.9c0,2.2-1.2,4.3-3.3,5.9c-2.2,1.7-5.2,2.6-8.4,2.6
	c-0.8,0-1.5-0.1-2.3-0.2l-0.6-0.1l-0.4,0.4c-0.9,0.9-2,1.6-3.2,2.1c0.4-0.7,0.7-1.5,0.9-2.3l0.2-0.9l-0.8-0.4
	c-1.7-0.8-3.1-1.8-4-3.1c-1-1.3-1.5-2.7-1.5-4.1c0-2.2,1.2-4.3,3.3-5.9C85.3,69.4,88.3,68.5,91.5,68.5 M91.5,67.4
	c-7.1,0-12.8,4.3-12.8,9.6c0,3.5,2.5,6.5,6.1,8.2c-0.2,0.8-0.5,1.6-1,2.3c-0.5,0.7-1.1,1.4-1.8,1.9c0.1,0,0.2,0,0.3,0
	c2.3,0,4.8-1,6.7-2.9c0.8,0.1,1.6,0.2,2.5,0.2c7.1,0,12.8-4.3,12.8-9.6S98.5,67.3,91.5,67.4L91.5,67.4z"/>
<text transform="matrix(1 0 0 1 88.0327 78.2812)" class="st1 st2">H</text>
<text transform="matrix(1 0 0 1 92.0664 78.2812)" class="st1 st2">i!</text>
</svg>
